<svg aria-hidden="true" style="position: absolute; width: 0; height: 0; overflow: hidden;" version="1.1" xmlns="http://www.w3.org/2000/svg" xmlns:xlink="http://www.w3.org/1999/xlink">
<defs>
<symbol id="icon-insurance" viewBox="0 0 22 32">
<path d="M0.433 10.994c0 0.285-0.433 0.285-0.433 0 0-6.070 4.923-10.994 10.994-10.994 6.073 0 10.994 4.923 10.994 10.994 0 0.285-0.431 0.285-0.431 0 0-4.103-6.743-4.106-6.743 0 0 0.285-0.444 0.285-0.444 0 0-4.093-6.753-4.093-6.753 0 0 0.285-0.444 0.285-0.444 0 0-4.085-6.74-4.114-6.74 0zM7.212 9.4c0.117-2.362 0.488-4.479 1.028-6.096 0.431-1.285 0.976-2.26 1.594-2.808-4.635 0.506-8.388 4.020-9.226 8.577 1.596-2.302 5.281-2.118 6.605 0.327zM14.336 9.294c-0.119-2.271-0.48-4.303-0.999-5.852-1.339-4.010-3.348-4.010-4.687 0-0.519 1.549-0.877 3.582-0.999 5.852 1.44-2.447 5.245-2.447 6.685 0zM21.38 9.073c-0.836-4.557-4.588-8.071-9.226-8.577 0.62 0.548 1.163 1.523 1.594 2.808 0.54 1.617 0.911 3.735 1.028 6.096 1.331-2.458 5.027-2.603 6.605-0.327z"></path>
<path d="M9.551 16.023v-2.232c-0.402 0.267-0.719 0.68-0.719 1.183 0 0.491 0.322 0.815 0.719 1.049zM9.984 16.716c-0.771-0.353-1.583-0.766-1.583-1.741 0-1.007 0.766-1.51 1.583-1.887v3.628z"></path>
<path d="M12.437 19.392v2.258c0.407-0.27 0.727-0.685 0.727-1.189 0-0.496-0.327-0.831-0.727-1.069zM12.006 18.697c0.773 0.358 1.591 0.784 1.591 1.765 0 1.010-0.771 1.513-1.591 1.887v-3.652z"></path>
<path d="M12.437 11.251c1.775 0.41 3.6 1.739 3.6 3.724 0 1.7-2.873 1.638-2.873 0 0-0.506-0.319-0.921-0.727-1.189v3.177c1.643 0.537 3.605 1.5 3.605 3.498 0 1.988-1.825 3.314-3.605 3.722-0.008 1.892-2.881 1.889-2.886-0.003-1.012-0.234-1.892-0.706-2.528-1.331-0.667-0.659-1.061-1.487-1.061-2.388 0-1.674 2.87-1.674 2.87 0 0 0.501 0.317 0.914 0.719 1.181v-3.174c-1.63-0.527-3.602-1.518-3.602-3.498 0-1.988 1.824-3.314 3.602-3.722 0.008-1.892 2.881-1.889 2.886 0.003zM9.984 11.256v0.345c-1.69 0.335-3.605 1.417-3.605 3.369 0 1.876 2.102 2.717 3.605 3.182v4.194c-0.812-0.371-1.583-0.872-1.583-1.884 0-1.106-2.009-1.106-2.009 0 0 0.781 0.348 1.503 0.934 2.079 0.745 0.737 1.648 1.087 2.658 1.287v0.348c0 1.331 2.022 1.331 2.022 0v-0.345c1.695-0.337 3.602-1.42 3.602-3.369 0-1.895-2.097-2.709-3.602-3.184v-4.191c0.815 0.371 1.591 0.872 1.591 1.889 0 1.077 2.006 1.121 2.006 0 0-1.949-1.905-3.034-3.597-3.371v-0.348c0-1.331-2.022-1.331-2.022 0z"></path>
</symbol>
<symbol id="icon-female_student" viewBox="0 0 26 32">
<path d="M2.211 25.028c2.723 0 18.478 0 21.198 0 0.105-2.407-0.068-6.401-1.554-8.302l-0.054-0.068-3.248-1.624c0.071-0.237 0.105-0.454 0.119-0.613 0.016-0.191-0.010-0.371-0.079-0.534-0.536-1.277-1.67-1.948-2.293-2.235 0.19-0.381 0.313-0.791 0.372-1.209 0.353-0.099 0.637-0.378 0.73-0.749l0.379-1.534c0.067-0.271 0.025-0.551-0.119-0.79-0.062-0.103-0.142-0.189-0.233-0.264 1.069-2.418-0.721-4.697-0.819-4.817-1.939-2.087-4.388-1.697-4.518-1.674-3.535 0.737-4.899 3.434-4.129 6.598-0.228 0.252-0.324 0.602-0.239 0.946l0.381 1.535c0.092 0.369 0.374 0.647 0.725 0.747 0.108 0.766 0.434 1.459 0.912 2.017v1.216c-5.072 2.586-1.858 0.936-5.923 2.984-0.008 0.038-1.907 2.048-1.625 8.006l0.017 0.364zM22.673 24.264h-3.489v-1.459l2.307-5.26c1.156 1.91 1.199 5.558 1.181 6.719zM17.911 14.356c-0.135 1.54-0.983 1.075-1.506 2.261-0.412-0.451-0.536-0.992-0.425-1.57 0.2-1.063-0.451-1.378-0.29-2.495l0.024-0.026v-0.004c0.014-0.015 0.142-0.168 0.179-0.216 1.38 0.599 2.045 1.713 2.018 2.049zM10.506 13.145c0.641 0.443 1.414 0.704 2.246 0.704 0.784 0 1.528-0.227 2.166-0.645 0.088 0.878 0.433 1.054 0.311 1.7-0.023 0.12-0.035 0.238-0.043 0.354l-2.376 2.666-3.037-3.41 0.733-0.381v-0.988zM9.551 9.882v-1.478c0-0.544 0-2.704 0-2.598 0.37-0.681 0.874-1.175 1.5-1.471 1.678 0.945 3.609 2.356 4.904 3.776-0.001 1.808 0.005 1.813-0.007 1.962l-0.001 0.009c-0.101 1.642-1.457 3.003-3.196 3.003-1.69 0-3.094-1.321-3.195-3.019-0.005-0.061-0.006-0.122-0.006-0.184zM9.078 14.884l3.732 4.19 2.506-2.812c0.057 0.164 0.138 0.319 0.229 0.469l-2.735 3.406-4.079-5.080 0.346-0.173zM16.72 9.267v-1.18c0.034-0.038 0.318-0.364 0.285-0.325 0.016 0.598 0.081-0.108-0.285 1.506zM12.234 1.367c0.152 0.009 2.188-0.308 3.798 1.422 0.063 0.079 1.374 1.76 0.847 3.599-0.18-0.818-0.494-1.867-0.991-2.368l-0.543 0.538c0.49 0.494 0.812 1.999 0.935 2.78-2.248-2.342-5.148-3.825-5.188-3.85-0.145 0.090-1.373 0.322-2.264 2.047l-0.043 0.082v1.267c-0.038 0-0.151 0.002-0.112 0.001-0.566-2.722 0.518-4.885 3.559-5.519zM8.594 7.672l0.193 0.778v0.818l-0.321-1.292c-0.047-0.193 0.096-0.266 0.128-0.304zM8.032 15.406l4.778 5.951 3.233-4.026c0.352 0.313 0.521 0.358 1.266 0.74l-0.252-0.849c-0.064-0.216 0.189-0.562 0.341-0.721 0.341-0.184 0.625-0.446 0.837-0.77l2.638 1.319-2.454 5.595v1.619h-11.219v-1.62l-2.456-5.595 3.287-1.643zM4.129 17.546l2.308 5.258v1.459h-3.489c-0.018-1.161 0.026-4.807 1.181-6.718z"></path>
</symbol>
<symbol id="icon-mobile_learning" viewBox="0 0 26 32">
<path d="M23.211 0.668h-11.845c-0.771 0-1.398 0.627-1.398 1.398v4.903l-8.8 3.693c-0.1 0.042-0.167 0.136-0.175 0.244s0.046 0.211 0.138 0.266l1.122 0.672v7.157c-0.574 0.131-1.004 0.644-1.004 1.259v0.69c0 0.158 0.128 0.287 0.287 0.287h2.010c0.158 0 0.287-0.128 0.287-0.287v-0.69c0-0.614-0.431-1.127-1.005-1.258v-6.815l0.887 0.531c-0.027 0.205-0.003-0.357-0.013 3.332 0 1.213 3.106 1.862 6.266 1.899v5.586c0 0.289 0.088 0.557 0.239 0.78 0.251 0.372 0.677 0.617 1.158 0.617h11.845c0.77 0 1.397-0.627 1.397-1.397-0 0.038-0.002-1.183 0-21.469 0-0.761-0.629-1.399-1.396-1.399zM3.259 20.261v0.403h-1.436v-0.403c0-0.397 0.321-0.72 0.716-0.72 0.397 0 0.72 0.323 0.72 0.72zM23.211 24.357h-11.845c-0.284 0-0.535-0.144-0.684-0.362-0.089-0.131-0.141-0.29-0.141-0.46v-1.936h13.491v1.937c0 0.449-0.374 0.822-0.822 0.822zM24.033 21.026h-13.492v-3.074c1.543-0.018 6.27-0.357 6.27-1.901-0.002-2.317 0.004-3.257-0.007-3.337l2.573-1.541c0.093-0.056 0.146-0.159 0.138-0.266s-0.075-0.202-0.175-0.244l-8.799-3.693v-2.393h13.492v16.45zM10.255 14.148c-1.59 0-4.65 0.205-5.98 1.073 0.008-2.656-0.092-2.483 0.235-2.708 0.826-0.608 3.188-1.033 5.745-1.033 1.115 0 5.983 0.307 5.983 1.337v2.404c-1.342-0.876-4.387-1.074-5.983-1.074zM10.542 2.066c0-0.454 0.37-0.824 0.824-0.824h11.845c0.455 0 0.822 0.375 0.822 0.824v1.936h-13.491v-1.936zM10.255 7.471l8.342 3.502-2.067 1.237c-1.099-1.090-4.734-1.301-6.275-1.301-1.543 0-5.179 0.212-6.275 1.302l-2.068-1.237 8.343-3.502zM4.275 16.051c0-0.464 2.054-1.329 5.98-1.329 3.928 0 5.983 0.866 5.983 1.329s-2.055 1.33-5.983 1.33c-3.926 0-5.98-0.866-5.98-1.33z"></path>
<path d="M17.288 22.031c-0.523 0-0.948 0.425-0.948 0.948s0.425 0.948 0.948 0.948c0.523 0 0.948-0.425 0.948-0.948s-0.425-0.948-0.948-0.948zM17.288 23.354c-0.207 0-0.375-0.168-0.375-0.375s0.168-0.375 0.375-0.375c0.207 0 0.375 0.168 0.375 0.375s-0.168 0.375-0.375 0.375z"></path>
<path d="M16.195 2.336h2.186v0.573h-2.186v-0.573z"></path>
</symbol>
</defs>
</svg>
