<svg aria-hidden="true" style="position:absolute;width:0;height:0" xmlns="http://www.w3.org/2000/svg" overflow="hidden"><defs><symbol id="icon-insurance" viewBox="0 0 22 32"><path d="M.433 10.994c0 .285-.433.285-.433 0C0 4.924 4.923 0 10.994 0c6.073 0 10.994 4.923 10.994 10.994 0 .285-.431.285-.431 0 0-4.103-6.743-4.106-6.743 0 0 .285-.444.285-.444 0 0-4.093-6.753-4.093-6.753 0 0 .285-.444.285-.444 0 0-4.085-6.74-4.114-6.74 0zM7.212 9.4c.117-2.362.488-4.479 1.028-6.096.431-1.285.976-2.26 1.594-2.808A10.568 10.568 0 00.608 9.073c1.596-2.302 5.281-2.118 6.605.327zm7.124-.106c-.119-2.271-.48-4.303-.999-5.852-1.339-4.01-3.348-4.01-4.687 0-.519 1.549-.877 3.582-.999 5.852 1.44-2.447 5.245-2.447 6.685 0zm7.044-.221A10.563 10.563 0 0012.154.496c.62.548 1.163 1.523 1.594 2.808.54 1.617.911 3.735 1.028 6.096 1.331-2.458 5.027-2.603 6.605-.327zm-11.829 6.95v-2.232c-.402.267-.719.68-.719 1.183 0 .491.322.815.719 1.049zm.433.693c-.771-.353-1.583-.766-1.583-1.741 0-1.007.766-1.51 1.583-1.887v3.628zm2.453 2.676v2.258c.407-.27.727-.685.727-1.189 0-.496-.327-.831-.727-1.069zm-.431-.695c.773.358 1.591.784 1.591 1.765 0 1.01-.771 1.513-1.591 1.887v-3.652z"/><path d="M12.437 11.251c1.775.41 3.6 1.739 3.6 3.724 0 1.7-2.873 1.638-2.873 0 0-.506-.319-.921-.727-1.189v3.177c1.643.537 3.605 1.5 3.605 3.498 0 1.988-1.825 3.314-3.605 3.722-.008 1.892-2.881 1.889-2.886-.003-1.012-.234-1.892-.706-2.528-1.331-.667-.659-1.061-1.487-1.061-2.388 0-1.674 2.87-1.674 2.87 0 0 .501.317.914.719 1.181v-3.174c-1.63-.527-3.602-1.518-3.602-3.498 0-1.988 1.824-3.314 3.602-3.722.008-1.892 2.881-1.889 2.886.003zm-2.453.005v.345c-1.69.335-3.605 1.417-3.605 3.369 0 1.876 2.102 2.717 3.605 3.182v4.194c-.812-.371-1.583-.872-1.583-1.884 0-1.106-2.009-1.106-2.009 0 0 .781.348 1.503.934 2.079.745.737 1.648 1.087 2.658 1.287v.348c0 1.331 2.022 1.331 2.022 0v-.345c1.695-.337 3.602-1.42 3.602-3.369 0-1.895-2.097-2.709-3.602-3.184v-4.191c.815.371 1.591.872 1.591 1.889 0 1.077 2.006 1.121 2.006 0 0-1.949-1.905-3.034-3.597-3.371v-.348c0-1.331-2.022-1.331-2.022 0z"/></symbol><symbol id="icon-female_student" viewBox="0 0 26 32"><path d="M2.211 25.028h21.198c.105-2.407-.068-6.401-1.554-8.302l-.054-.068-3.248-1.624c.071-.237.105-.454.119-.613a1.118 1.118 0 00-.079-.534c-.536-1.277-1.67-1.948-2.293-2.235.19-.381.313-.791.372-1.209a1.04 1.04 0 00.73-.749l.379-1.534a1.037 1.037 0 00-.119-.79 1.034 1.034 0 00-.233-.264c1.069-2.418-.721-4.697-.819-4.817C14.671.202 12.222.592 12.092.615c-3.535.737-4.899 3.434-4.129 6.598a1.034 1.034 0 00-.239.946l.381 1.535c.092.369.374.647.725.747.108.766.434 1.459.912 2.017v1.216c-5.072 2.586-1.858.936-5.923 2.984-.008.038-1.907 2.048-1.625 8.006l.017.364zm20.462-.764h-3.489v-1.459l2.307-5.26c1.156 1.91 1.199 5.558 1.181 6.719zm-4.762-9.908c-.135 1.54-.983 1.075-1.506 2.261-.412-.451-.536-.992-.425-1.57.2-1.063-.451-1.378-.29-2.495l.024-.026v-.004c.014-.015.142-.168.179-.216 1.38.599 2.045 1.713 2.018 2.049zm-7.405-1.211a3.938 3.938 0 002.246.704c.784 0 1.528-.227 2.166-.645.088.878.433 1.054.311 1.7-.023.12-.035.238-.043.354l-2.376 2.666-3.037-3.41.733-.381v-.988zm-.955-3.263V5.806c.37-.681.874-1.175 1.5-1.471 1.678.945 3.609 2.356 4.904 3.776-.001 1.808.005 1.813-.007 1.962l-.001.009a3.2 3.2 0 01-3.196 3.003A3.206 3.206 0 019.55 9.882zm-.473 5.002l3.732 4.19 2.506-2.812c.057.164.138.319.229.469l-2.735 3.406-4.079-5.08.346-.173zm7.642-5.617v-1.18l.285-.325c.016.598.081-.108-.285 1.506zm-4.486-7.9c.152.009 2.188-.308 3.798 1.422.063.079 1.374 1.76.847 3.599-.18-.818-.494-1.867-.991-2.368l-.543.538c.49.494.812 1.999.935 2.78-2.248-2.342-5.148-3.825-5.188-3.85-.145.09-1.373.322-2.264 2.047l-.043.082v1.267l-.112.001C8.107 4.163 9.191 2 12.232 1.366zm-3.64 6.305l.193.778v.818l-.321-1.292c-.047-.193.096-.266.128-.304zm-.562 7.734l4.778 5.951 3.233-4.026c.352.313.521.358 1.266.74l-.252-.849c-.064-.216.189-.562.341-.721a2.3 2.3 0 00.837-.77l2.638 1.319-2.454 5.595v1.619H7.2v-1.62l-2.456-5.595 3.287-1.643zm-3.903 2.14l2.308 5.258v1.459H2.948c-.018-1.161.026-4.807 1.181-6.718z"/></symbol><symbol id="icon-mobile_learning" viewBox="0 0 26 32"><path d="M23.211.668H11.366a1.4 1.4 0 00-1.398 1.398v4.903l-8.8 3.693a.287.287 0 00-.037.51l1.122.672v7.157a1.292 1.292 0 00-1.004 1.259v.69c0 .158.128.287.287.287h2.01a.287.287 0 00.287-.287v-.69c0-.614-.431-1.127-1.005-1.258v-6.815l.887.531c-.027.205-.003-.357-.013 3.332 0 1.213 3.106 1.862 6.266 1.899v5.586a1.396 1.396 0 001.397 1.397H23.21c.77 0 1.397-.627 1.397-1.397 0 .038-.002-1.183 0-21.469 0-.761-.629-1.399-1.396-1.399zM3.259 20.261v.403H1.823v-.403a.719.719 0 111.436 0zm19.952 4.096H11.366a.828.828 0 01-.684-.362.817.817 0 01-.141-.46v-1.936h13.491v1.937a.83.83 0 01-.822.822zm.822-3.331H10.541v-3.074c1.543-.018 6.27-.357 6.27-1.901-.002-2.317.004-3.257-.007-3.337l2.573-1.541a.286.286 0 00-.037-.51L10.541 6.97V4.577h13.492v16.45zm-13.778-6.878c-1.59 0-4.65.205-5.98 1.073.008-2.656-.092-2.483.235-2.708.826-.608 3.188-1.033 5.745-1.033 1.115 0 5.983.307 5.983 1.337v2.404c-1.342-.876-4.387-1.074-5.983-1.074zm.287-12.082c0-.454.37-.824.824-.824h11.845c.455 0 .822.375.822.824v1.936H10.542V2.066zm-.287 5.405l8.342 3.502-2.067 1.237c-1.099-1.09-4.734-1.301-6.275-1.301-1.543 0-5.179.212-6.275 1.302l-2.068-1.237 8.343-3.502zm-5.98 8.58c0-.464 2.054-1.329 5.98-1.329 3.928 0 5.983.866 5.983 1.329s-2.055 1.33-5.983 1.33c-3.926 0-5.98-.866-5.98-1.33z"/><path d="M17.288 22.031a.949.949 0 10.001 1.897.949.949 0 00-.001-1.897zm0 1.323a.375.375 0 110-.75.375.375 0 010 .75zM16.195 2.336h2.186v.573h-2.186v-.573z"/></symbol></defs></svg>