<svg xmlns="http://www.w3.org/2000/svg" xmlns:xlink="http://www.w3.org/1999/xlink" version="1.1" x="0px" y="0px" viewBox="0 0 50 62.5" enable-background="new 0 0 50 50" xml:space="preserve"><g><path d="M4,42.65649h16.05176c0.81348,1.68701,2.51563,2.77686,4.43652,2.77686h1.01367c1.92283,0,3.62402-1.08936,4.4375-2.77686   H46c1.6543,0,3-1.3457,3-3v-28.75c0-1.6543-1.3457-3-3-3h-1.62012V6.56665c0-1.10303-0.89746-2-2-2H7.61035   c-1.10254,0-2,0.89697-2,2v1.33984H4c-1.6543,0-3,1.3457-3,3v28.75C1,41.31079,2.3457,42.65649,4,42.65649z M42.37793,36.48657H26   V13.2486c3.78558,0.49512,6.7207,3.73407,6.7207,7.65253v0.90192l-0.2373-0.05231   c-0.25781-0.05518-0.52832-0.00879-0.75293,0.13379c-0.22363,0.14307-0.38184,0.36865-0.43848,0.62793l-1.5918,7.24414   c-0.11816,0.53857,0.22266,1.07129,0.76172,1.18994l3.44043,0.7583c0.17773,0.0376,0.3584,0.05713,0.53906,0.05713   c1.20996,0,2.24023-0.82764,2.50391-2.01465l0.9209-4.18945c0.30371-1.37549-0.56836-2.74365-1.94824-3.05029l-1.19727-0.26385   v-1.34259c0-5.02344-3.8288-9.16882-8.7207-9.67346V6.56665h16.37988L42.37793,36.48657z M33.03027,23.91919l2.45605,0.54102   c0.30664,0.06836,0.49414,0.36035,0.42676,0.66699l-0.9209,4.18848c-0.06641,0.30273-0.40137,0.49072-0.66602,0.43457   l-2.45898-0.54199L33.03027,23.91919z M7.61035,6.56665H24v4.65955c-4.89673,0.5-8.73047,4.64807-8.73047,9.67493v1.34198   l-1.19922,0.26495c-0.66797,0.14844-1.23828,0.54639-1.60449,1.12061c-0.36816,0.57568-0.48926,1.26123-0.34082,1.92725   l0.91895,4.18457c0.24902,1.17139,1.30273,2.02148,2.50584,2.02148c0.18069,0,0.36135-0.01953,0.54592-0.05859l3.42578-0.75684   c0.53809-0.11914,0.87891-0.65137,0.76074-1.18994l-1.5918-7.24414c-0.05664-0.25928-0.21484-0.48535-0.43848-0.62793   c-0.22461-0.14258-0.49609-0.18945-0.75391-0.13379l-0.22852,0.05048v-0.90009c0-3.92181,2.94012-7.16321,6.73047-7.65405v23.2395   H7.61035V8.90649V6.56665z M16.95215,23.92017l1.16406,5.28857l-2.44531,0.54004c-0.30078,0.06787-0.60742-0.13086-0.67188-0.43018   l-0.9209-4.19434c-0.0332-0.14551-0.00684-0.29443,0.07227-0.41846c0.08008-0.12549,0.20605-0.2124,0.35156-0.24512   L16.95215,23.92017z M3,10.90649c0-0.55127,0.44824-1,1-1h1.61035v26.58008c0,1.10303,0.89746,2,2,2h34.76953   c1.10254,0,2-0.89697,2-2V9.90649H46c0.55176,0,1,0.44873,1,1v28.75c0,0.55127-0.44824,1-1,1H29.25977   c-0.43945,0-0.82715,0.28662-0.95605,0.70654c-0.37988,1.23828-1.50586,2.07031-2.80176,2.07031h-1.01367   c-1.29102,0-2.41602-0.82861-2.80566-2.08203c-0.13284-0.41406-0.51758-0.69482-0.95215-0.69482H4c-0.55176,0-1-0.44873-1-1   V10.90649z"/></g><text x="0" y="65" fill="#000000" font-size="5px" font-weight="bold" font-family="'Helvetica Neue', Helvetica, Arial-Unicode, Arial, Sans-serif">Created by Vectors Point</text><text x="0" y="70" fill="#000000" font-size="5px" font-weight="bold" font-family="'Helvetica Neue', Helvetica, Arial-Unicode, Arial, Sans-serif">from the Noun Project</text></svg>