<svg xmlns="http://www.w3.org/2000/svg" xmlns:xlink="http://www.w3.org/1999/xlink" version="1.1" x="0px" y="0px" viewBox="0 0 67 83.75" enable-background="new 0 0 67 67" xml:space="preserve"><g><path d="M5.78747,65.50235c7.1273,0,48.36054,0,55.47949,0c0.27477-6.29995-0.17843-16.75259-4.06836-21.72754l-0.14063-0.17871   l-8.50037-4.24976c0.18457-0.61987,0.27545-1.18781,0.31189-1.60522c0.04199-0.50098-0.02734-0.97168-0.20703-1.39795   c-1.40234-3.34149-4.36975-5.09943-6.00201-5.84882c0.49744-0.99792,0.81812-2.06921,0.97302-3.16382   c0.92395-0.25916,1.66718-0.98828,1.91083-1.961l0.99219-4.01367c0.17578-0.70801,0.06543-1.44238-0.3125-2.06689   c-0.1626-0.26923-0.37292-0.49591-0.60876-0.6897c2.79736-6.32721-1.88788-12.29315-2.14319-12.60718   C38.39782,0.5292,31.98767,1.55069,31.6488,1.61123C22.39806,3.54006,18.82815,10.59952,20.84362,18.879   c-0.59711,0.65863-0.84772,1.57617-0.62646,2.47589l0.99707,4.01807c0.24176,0.96552,0.97906,1.69208,1.89648,1.95435   c0.28302,2.00458,1.13519,3.81763,2.38672,5.27881v3.18188c-13.2749,6.76916-4.86356,2.45059-15.50195,7.80957   c-0.02103,0.1-4.99176,5.36036-4.25293,20.95215L5.78747,65.50235z M59.33923,63.50235h-9.13086v-3.81934l6.03906-13.76611   C59.27282,50.9169,59.38513,60.46378,59.33923,63.50235z M46.87732,37.5712c-0.35234,4.03046-2.5721,2.81221-3.94238,5.91748   c-1.07774-1.18006-1.40189-2.59515-1.1123-4.10986c0.52332-2.78126-1.18151-3.60732-0.76013-6.52972l0.06384-0.06696v-0.00928   c0.03621-0.04029,0.3724-0.43896,0.46973-0.56494C45.20862,33.77605,46.94781,36.69244,46.87732,37.5712z M27.49743,34.40323   c1.67706,1.15826,3.70148,1.84277,5.87891,1.84277c2.05066,0,3.99829-0.59412,5.66815-1.68823   c0.23144,2.29744,1.13324,2.75734,0.81329,4.448c-0.06006,0.31384-0.09247,0.62311-0.11176,0.92725l-6.21832,6.97852   l-7.9491-8.92365l1.91882-0.99774V34.40323z M24.99743,25.8627v-3.86914c0-1.42481,0-7.07747,0-6.79834   c0.96777-1.78223,2.28711-3.07471,3.92676-3.84961c4.39135,2.47409,9.44606,6.1664,12.83594,9.88239   c-0.00321,4.73233,0.01341,4.7452-0.01819,5.13403l-0.00214,0.02466c-0.26452,4.29726-3.81307,7.85932-8.36346,7.85932   c-4.42383,0-8.09668-3.4585-8.36231-7.90186C25.00036,26.18497,24.99743,26.0253,24.99743,25.8627z M23.75915,38.95303   l9.76856,10.96533l6.55829-7.36005c0.1499,0.42975,0.36011,0.83575,0.60059,1.22791l-7.15887,8.91437L22.85241,39.40628   L23.75915,38.95303z M43.76013,24.25332v-3.08936c0.08787-0.10032,0.83347-0.95158,0.74561-0.85126   C44.54693,21.8769,44.7165,20.03071,43.76013,24.25332z M32.01892,3.57657c0.39676,0.0246,5.72744-0.80739,9.94043,3.72168   c0.16583,0.20728,3.5954,4.60712,2.21759,9.42035c-0.47156-2.14178-1.29358-4.88641-2.59259-6.19623l-1.41992,1.4082   c1.28265,1.29358,2.12512,5.23279,2.44598,7.27496C36.72703,13.07538,29.13767,9.19545,29.03356,9.12979   c-0.38063,0.23572-3.59227,0.84372-5.9248,5.35791l-0.11133,0.21582v3.31543c-0.10015,0.00106-0.39416,0.00417-0.29401,0.00311   C21.22141,10.89748,24.05951,5.23777,32.01892,3.57657z M22.49267,20.0795l0.50476,2.03613v2.14014l-0.83887-3.38086   C22.03547,20.37101,22.41039,20.17986,22.49267,20.0795z M21.02215,40.3212l12.50556,15.57373l8.461-10.53729   c0.92043,0.82024,1.3629,0.93656,3.31439,1.93573l-0.6582-2.22314c-0.16699-0.56445,0.49414-1.46973,0.89355-1.88574   c0.89148-0.48151,1.63458-1.16827,2.19043-2.01611l6.90332,3.45166l-6.42383,14.64404v4.23828H18.84606v-4.23877l-6.42676-14.64209   L21.02215,40.3212z M10.80602,45.9213l6.04004,13.76221v3.81885H7.7152C7.66931,60.46475,7.78259,50.92276,10.80602,45.9213z"/></g><text x="0" y="82" fill="#000000" font-size="5px" font-weight="bold" font-family="'Helvetica Neue', Helvetica, Arial-Unicode, Arial, Sans-serif">Created by Vectors Point</text><text x="0" y="87" fill="#000000" font-size="5px" font-weight="bold" font-family="'Helvetica Neue', Helvetica, Arial-Unicode, Arial, Sans-serif">from the Noun Project</text></svg>