<svg xmlns="http://www.w3.org/2000/svg" xmlns:xlink="http://www.w3.org/1999/xlink" version="1.1" x="0px" y="0px" viewBox="0 0 67 83.75" enable-background="new 0 0 67 67" xml:space="preserve"><g><path d="M5.0195,26.5586v5.7099c0,0.3067,0.1407,0.5957,0.3819,0.7862c3.90232,3.0713,8.7988,4.7636,13.7881,4.7636   c1.49322,0,2.9877-0.1561,4.449-0.4512c3.1147,1.3767,6.4299,2.0811,9.8615,2.0811c3.4426,0,6.7586-0.7047,9.8623-2.081   c6.2332,1.2587,12.875-0.0932,18.23542-4.3125c0.24118-0.1905,0.38178-0.4795,0.38178-0.7862v-5.7099   c0-0.8379-0.416-1.6016-1.1592-2.0713l-7.7988-4.3875c1.706-2.1648,2.9771-5.247,3.19822-7.8908   C56.867,7.6584,53.1581,2.8389,47.8193,2.8389c-2.2449,0-4.3789,0.9241-5.9448,2.474c-0.0542,0.0537-0.116,0.099-0.1687,0.1542   c-0.0483,0.0504-0.0873,0.1092-0.1342,0.1609c-0.0313,0.0343-0.0585,0.0722-0.0892,0.107   c-1.5258-2.7824-4.4586-4.5016-7.914-4.5016c-0.33568,0-0.6654,0.023-0.992,0.0562c-0.0198-0.0012-0.03668-0.0113-0.0569-0.0113   c-0.1855,0-0.5781,0.0488-0.788,0.1094c-0.0311,0.009-0.0534,0.0309-0.08278,0.0425C29.0684,1.952,26.8826,3.5156,25.5726,5.778   c-1.5755-1.8372-3.8916-2.9382-6.4105-2.9382c-7.8813,0-11.3779,9.3006-5.1567,17.3045l-7.8706,4.3694   C5.4365,24.956,5.0195,25.7207,5.0195,26.5586z M43.34272,35.1697c-0.16912,0.0825-0.33642,0.1707-0.50682,0.2483l-0.00018,0.0001   c-0.00122,0.0005-0.00242,0.0013-0.00372,0.0018c-2.9287,1.3457-6.06828,2.0283-9.332,2.0283   c-3.2539,0-6.3935-0.6826-9.3359-2.0302c-1.4317-0.6514-2.81638-1.4795-4.1241-2.462v-5.788c0-0.1973,0.09572-0.3721,0.2061-0.4454   l9.1597-5.0909c1.1396,0.9675,2.5955,1.6769,4.104,1.6769c1.4531,0,3.0225-0.7198,4.139-1.7006l9.0485,5.0814   c0.167,0.1075,0.2627,0.2813,0.2627,0.4786v5.7871C45.808,33.8207,44.59472,34.558,43.34272,35.1697z M59.794,26.2031   c0.1181,0.0742,0.1855,0.2041,0.1855,0.3555v5.2178c-3.96978,2.9792-8.7465,4.3314-13.5859,3.9921   c0.7445-0.4647,1.5553-1.0411,2.1836-1.5332c0.2412-0.1894,0.3828-0.4795,0.3828-0.7871V27.168   c0-0.877-0.4405-1.6846-1.2305-2.1914l-4.8066-2.7012l1.1689-0.6475c1.4177,1.1561,2.6351,1.5,3.7275,1.5   c1.336,0,2.7427-0.6554,3.7872-1.5303L59.794,26.2031z M47.8193,4.8389c2.7839,0,5.2292,1.8192,6.0928,4.3203   c-1.6797-0.1993-3.3223-1.0284-4.5107-2.3028c-0.2149-0.2304-0.5205-0.3496-0.8379-0.3125   c-0.3125,0.0332-0.59078,0.2119-0.752,0.4815c-1.1406,1.9111-3.0107,3.1865-5.1377,3.5488   c0.0001-0.002-0.0003-0.0038-0.0003-0.0058c0.0095-0.4351-0.01578-0.876-0.0656-1.3169c-0.0051-0.0452-0.0093-0.0896-0.015-0.1343   c-0.0644-0.5009-0.2153-1.1268-0.24518-1.2276C43.4833,6.0703,45.59272,4.8389,47.8193,4.8389z M42.45472,12.6146   c2.52658-0.2768,4.81168-1.5464,6.38118-3.5531c1.547,1.2687,3.5095,2.0375,5.44882,2.1304   c-0.015,3.6137-2.96672,9.936-6.46542,9.936c-2.6967,0-4.999-3.8565-5.8593-6.5303   C42.1786,13.9099,42.3378,13.2484,42.45472,12.6146z M42.6578,20.1353l-1.7865,0.9893l-1.8042-1.0133   c0.6689-0.8333,1.2822-1.8008,1.8075-2.8504C41.3795,18.3224,41.9846,19.2978,42.6578,20.1353z M39.9619,14.2705   c-0.9644,2.8769-3.4381,7.0381-6.4521,7.0381c-3.5135,0-6.5056-5.776-7.0757-9.4698c0.1521-0.0377,4.89962,0.2548,8.1665-4.0351   c1.6584,1.3872,3.8956,2.3053,6.0716,2.3964C40.6979,11.504,40.3816,13.036,39.9619,14.2705z M33.5684,3.2334   c5.6056,0,6.6727,4.8248,6.7605,4.9249c-2.0326-0.2064-3.8873-1.2022-5.1687-2.5724c-0.2149-0.2304-0.5274-0.3457-0.8389-0.3115   c-0.3135,0.0342-0.5918,0.2139-0.7529,0.4854c-1.1104,1.8786-2.8519,3.2036-4.8682,3.7667   C27.9218,9.744,27.081,9.8432,26.348,9.8361C26.6224,6.1621,29.567,3.2334,33.5684,3.2334z M26.1299,17.2417   c0.5187,1.038,1.1351,2.0295,1.8406,2.9006l-1.7654,0.9813l-1.8288-1.0279C25.0699,19.2117,25.6586,18.2226,26.1299,17.2417z    M19.1621,4.8398c2.2679,0,4.3459,1.1509,5.5039,3.0528c-0.0581,0.2016-0.2146,1.0041-0.23528,1.1045   c-1.39162-0.333-2.67-1.0743-3.67192-2.1426c-0.2158-0.2295-0.5205-0.3438-0.8389-0.3106   c-0.3125,0.0342-0.5908,0.2139-0.7509,0.4844c-1.3376,2.2573-3.7928,3.6593-6.40728,3.66   C13.0801,7.4075,15.823,4.8398,19.1621,4.8398z M12.8496,12.6832c2.8737-0.028,5.5868-1.3825,7.3457-3.6217   c1.2016,0.9892,2.6287,1.6405,4.1452,1.938c0.0588,1.1593,0.3609,2.568,0.7064,3.6069c-0.5521,1.6934-1.6116,3.712-2.9256,5.0526   c-0.0084,0.0083-0.0194,0.0121-0.0275,0.0207c-0.8223,0.8662-1.9922,1.4492-2.9122,1.4492   C15.9671,21.1289,13.45272,16.0709,12.8496,12.6832z M7.0195,26.5586c0-0.1514,0.0674-0.2803,0.1358-0.3262l8.3003-4.6062   c0.4979,0.4146,0.6125,0.4619,0.7127,0.5352l-0.0003,0.0007c0.9768,0.6492,1.8721,0.9727,3.09372,0.9727   c1.30088,0,2.48518-0.5512,3.52738-1.4c0.0587-0.046,0.1219-0.0904,0.1777-0.1372l1.1846,0.6661l-4.9336,2.7441   C18.4805,25.4834,18.04,26.291,18.04,27.168v6.2802c0,0.3067,0.14072,0.5967,0.3829,0.7862   c0.6387,0.5017,1.46682,1.0869,2.1836,1.5351c-4.9092,0.335-9.6856-1.0654-13.587-3.9931V26.5586z"/><path d="M64.0381,43.1416c-1.2305-0.7734-2.7451-0.8535-4.0479-0.2217l-12.3409,5.9617c-0.043-2.3098-1.9281-4.1775-4.2489-4.1775   l-7.0762,0.0019c-3.4892-3.0332-7.9482-4.8906-12.0029-4.9882c-3.9984-0.0948-7.5877-0.1214-9.2617-0.1289v-2.0206H1v23.2256   h14.0596v-2.7813c3.8556,2.212,13.9936,7.754,18.8047,7.754c0.1093,0,0.2158-0.0029,0.3183-0.0088   c8.461-0.47459,28.416-14.5166,29.7324-15.4492C65.2022,49.5615,66,48.1787,66,46.6875C66,45.2373,65.2666,43.9121,64.0381,43.1416   z M13.0596,58.7939H3V39.5683h10.0596V58.7939z M62.88572,48.5937c-0.03022,0.0166-0.06052,0.0352-0.08882,0.0557   c-0.2061,0.1465-20.7324,14.6631-28.7256,15.1123c-0.0791,0.0039-0.1592,0.0059-0.2432,0.0059   c-4.2198,0-14.5083-5.551-18.7685-8.0686v-14.11c1.6677,0.0075,5.2363,0.0342,9.2138,0.1288   c3.7041,0.0888,7.8164,1.8574,11.002,4.7304l0.2852,0.2578l7.8398-0.0019c1.2441,0,2.2568,1.0117,2.2568,2.2558   c0,1.2442-1.0117,2.2569-2.2558,2.2569H28.9981v2h14.4033c1.38032,0,2.5969-0.671,3.375-1.6929l14.084-6.8032   c0.6914-0.3369,1.4628-0.294,2.1152,0.1152C63.627,45.2441,64,45.9189,64,46.6875C64,47.4766,63.5732,48.206,62.88572,48.5937z"/><rect x="32.5" y="25.7529" width="2" height="1.8545"/><rect x="32.5" y="29.4512" width="2" height="1.8545"/><rect x="32.5" y="33.14941" width="2" height="1.8545"/></g><text x="0" y="82" fill="#000000" font-size="5px" font-weight="bold" font-family="'Helvetica Neue', Helvetica, Arial-Unicode, Arial, Sans-serif">Created by Vectors Point</text><text x="0" y="87" fill="#000000" font-size="5px" font-weight="bold" font-family="'Helvetica Neue', Helvetica, Arial-Unicode, Arial, Sans-serif">from the Noun Project</text></svg>