<svg xmlns="http://www.w3.org/2000/svg" xmlns:xlink="http://www.w3.org/1999/xlink" xml:space="preserve" version="1.1" style="shape-rendering:geometricPrecision;text-rendering:geometricPrecision;image-rendering:optimizeQuality;" viewBox="0 0 8472 12330" x="0px" y="0px" fill-rule="evenodd" clip-rule="evenodd"><defs><style type="text/css">
   
    .fil0 {fill:black;fill-rule:nonzero}
   
  </style></defs><g><path class="fil0" d="M167 4236c0,110 -167,110 -167,0 0,-2339 1897,-4236 4236,-4236 2340,0 4236,1897 4236,4236 0,110 -166,110 -166,0 0,-1581 -2598,-1582 -2598,0 0,110 -171,110 -171,0 0,-1577 -2602,-1577 -2602,0 0,110 -171,110 -171,0 0,-1574 -2597,-1585 -2597,0zm2612 -614c45,-910 188,-1726 396,-2349 166,-495 376,-871 614,-1082 -1786,195 -3232,1549 -3555,3305 615,-887 2035,-816 2545,126zm2745 -41c-46,-875 -185,-1658 -385,-2255 -516,-1545 -1290,-1545 -1806,0 -200,597 -338,1380 -385,2255 555,-943 2021,-943 2576,0zm2714 -85c-322,-1756 -1768,-3110 -3555,-3305 239,211 448,587 614,1082 208,623 351,1439 396,2349 513,-947 1937,-1003 2545,-126z"/><path class="fil0" d="M3680 6174l0 -860c-155,103 -277,262 -277,456 0,189 124,314 277,404zm167 267c-297,-136 -610,-295 -610,-671 0,-388 295,-582 610,-727l0 1398z"/><path class="fil0" d="M4792 7472l0 870c157,-104 280,-264 280,-458 0,-191 -126,-320 -280,-412zm-166 -268c298,138 613,302 613,680 0,389 -297,583 -613,727l0 -1407z"/><path class="fil0" d="M4792 4335c684,158 1387,670 1387,1435 0,655 -1107,631 -1107,0 0,-195 -123,-355 -280,-458l0 1224c633,207 1389,578 1389,1348 0,766 -703,1277 -1389,1434 -3,729 -1110,728 -1112,-1 -390,-90 -729,-272 -974,-513 -257,-254 -409,-573 -409,-920 0,-645 1106,-645 1106,0 0,193 122,352 277,455l0 -1223c-628,-203 -1388,-585 -1388,-1348 0,-766 703,-1277 1388,-1434 3,-729 1110,-728 1112,1zm-945 2l0 133c-651,129 -1389,546 -1389,1298 0,723 810,1047 1389,1226l0 1616c-313,-143 -610,-336 -610,-726 0,-426 -774,-426 -774,0 0,301 134,579 360,801 287,284 635,419 1024,496l0 134c0,513 779,513 779,0l0 -133c653,-130 1388,-547 1388,-1298 0,-730 -808,-1044 -1388,-1227l0 -1486 0 -129c314,143 613,336 613,728 0,415 773,432 773,0 0,-751 -734,-1169 -1386,-1299l0 -134c0,-513 -779,-513 -779,0z"/></g><text x="0" y="9879" fill="#000000" font-size="5px" font-weight="bold" font-family="'Helvetica Neue', Helvetica, Arial-Unicode, Arial, Sans-serif">Created by de det</text><text x="0" y="9884" fill="#000000" font-size="5px" font-weight="bold" font-family="'Helvetica Neue', Helvetica, Arial-Unicode, Arial, Sans-serif">from the Noun Project</text></svg>