<svg xmlns="http://www.w3.org/2000/svg" xmlns:xlink="http://www.w3.org/1999/xlink" version="1.1" x="0px" y="0px" viewBox="0 0 67 83.75" enable-background="new 0 0 67 67" xml:space="preserve"><g><path d="M60.7477875,1.7480469H29.7477856c-2.0180664,0-3.659668,1.6416016-3.659668,3.659668v12.8322144L3.0578449,27.90625   c-0.2607422,0.109375-0.4379883,0.3554688-0.4580078,0.6376953s0.1196289,0.5517578,0.3623047,0.6972656l2.937012,1.7578735   v18.7322998c-1.5018921,0.3424072-2.6289065,1.6866455-2.6289065,3.2949829v1.8056641c0,0.4140625,0.3359375,0.75,0.7500002,0.75   h5.2592773c0.4140625,0,0.75-0.3359375,0.75-0.75v-1.8056641c0-1.6062012-1.1271973-2.9486084-2.6303711-3.2932129V31.8968506   l2.3222656,1.3898926c-0.0713997,0.5354958-0.0090437-0.9333267-0.0332031,8.7210693   c0,3.173584,8.1289053,4.8736572,16.3999023,4.9710693v14.6187744c0,0.755127,0.2312012,1.4573975,0.6265259,2.0402832   c0.6577148,0.9729004,1.7709961,1.6140137,3.031189,1.6140137h31.0000019c2.0161133,0,3.65625-1.640625,3.65625-3.65625   c-0.0000534,0.1001129-0.0041199-3.0966225,0-56.1875C64.4020844,3.4175251,62.7560692,1.7480469,60.7477875,1.7480469z    M8.5295248,53.0263672v1.0556641H4.7702475v-1.0556641c0-1.0390625,0.8413086-1.8847656,1.875-1.8847656   C7.68431,51.1416016,8.5295248,51.9873047,8.5295248,53.0263672z M60.7477875,63.7480469H29.7477856   c-0.7438354,0-1.4009399-0.3765259-1.7894897-0.947998c-0.232666-0.3441772-0.3687134-0.758728-0.3687134-1.2043457v-5.0673828   h35.3085938v5.0693359C62.8981781,62.7723465,61.9192657,63.7480469,60.7477875,63.7480469z M62.8981781,55.0283203H27.5881176   v-8.0449219c4.0383148-0.0462685,16.4096699-0.9355965,16.4096699-4.9755859   c-0.0044556-6.064888,0.0106964-8.5242271-0.019043-8.7324219l6.7348633-4.0341797   c0.2426758-0.1455078,0.3823242-0.4150391,0.3623047-0.6972656s-0.1972656-0.5283203-0.4580078-0.6376953l-23.0297871-9.6665039   v-6.2641602h35.3100586V55.0283203z M26.8381176,37.0283203c-4.1601658,0-12.1701193,0.5372849-15.6499014,2.8095703   c0.0220804-6.9501648-0.2411404-6.4975128,0.6147461-7.0869141c2.1616211-1.5917969,8.3442373-2.703125,15.0351553-2.703125   c2.9183159,0,15.6596699,0.8023186,15.6596699,3.5v6.2910156C38.9853973,37.5454597,31.0160751,37.0283203,26.8381176,37.0283203z    M27.5895824,5.4082031c0-1.1889648,0.9672852-2.15625,2.15625-2.15625h31.0000019   c1.1900253,0,2.1523438,0.9808574,2.1523438,2.1557617v5.0678711H27.5895824V5.4082031z M26.8381176,19.5517578   l21.833498,9.1640625l-5.4099731,3.2374268c-2.8761902-2.8522911-12.3904743-3.4053955-16.4235249-3.4053955   c-4.0383663,0-13.5532837,0.5548306-16.4233398,3.40625l-5.4116211-3.2382813L26.8381176,19.5517578z M11.1882162,42.0078125   c0-1.2138672,5.374999-3.4794922,15.6499014-3.4794922c10.2812519,0,15.6596699,2.265625,15.6596699,3.4794922   c0,1.2148438-5.378418,3.4804688-15.6596699,3.4804688C16.5632153,45.4882813,11.1882162,43.2226563,11.1882162,42.0078125z"/><path d="M45.2458344,57.6591797c-1.3676758,0-2.4804688,1.1123047-2.4804688,2.4804688s1.112793,2.4814453,2.4804688,2.4814453   c1.3681641,0,2.480957-1.1132813,2.480957-2.4814453S46.6139984,57.6591797,45.2458344,57.6591797z M45.2458344,61.1210938   c-0.5405273,0-0.9804688-0.4404297-0.9804688-0.9814453s0.4399414-0.9804688,0.9804688-0.9804688   c0.5410156,0,0.980957,0.4394531,0.980957,0.9804688S45.78685,61.1210938,45.2458344,61.1210938z"/><rect x="42.3849945" y="6.1137695" width="5.7216797" height="1.5"/></g></svg>