<svg xmlns="http://www.w3.org/2000/svg" xmlns:xlink="http://www.w3.org/1999/xlink" version="1.1" x="0px" y="0px" viewBox="0 0 67 83.75" enable-background="new 0 0 67 67" xml:space="preserve"><g><rect x="9.7334137" y="16.7678223" width="20.0332031" height="1.5"/><rect x="12.7334137" y="22.3605957" width="17.0332031" height="1.5"/><rect x="9.7334137" y="27.9538574" width="20.0332031" height="1.5"/><rect x="12.7334137" y="33.5466309" width="17.0332031" height="1.5"/><rect x="9.7334137" y="39.1394043" width="20.0332031" height="1.5"/><rect x="12.7334137" y="44.732666" width="17.0332031" height="1.5"/><rect x="37.2334137" y="16.7678223" width="20.0332031" height="1.5"/><rect x="37.2334137" y="22.3605957" width="17.0332031" height="1.5"/><rect x="37.2334137" y="27.9538574" width="20.0332031" height="1.5"/><rect x="37.2334137" y="33.5466309" width="17.0332031" height="1.5"/><rect x="37.2334137" y="39.1394043" width="20.0332031" height="1.5"/><rect x="37.2334137" y="44.732666" width="17.0332031" height="1.5"/><path d="M64.5000153,15.0603027h-2.7500038v-4.1303711c0-0.4140625-0.3359375-0.75-0.75-0.75H38.5800896   c-2.1878662,0-4.0842285,1.1828003-5.0794067,2.9533691c-0.9953003-1.770752-2.8927612-2.9533691-5.0807495-2.9533691H6.0000119   c-0.4140625,0-0.75,0.3359375-0.75,0.75v4.1303711H2.5000117c-0.4140625,0-0.7499999,0.3359375-0.7499999,0.75v40.2597656   c0,0.4140625,0.3359374,0.75,0.7499999,0.75c7.5300312,0,54.4430313,0,62.0000038,0c0.4140625,0,0.75-0.3359375,0.75-0.75   V15.8103027C65.2500153,15.3962402,64.9140778,15.0603027,64.5000153,15.0603027z M38.5800896,11.6799316h21.6699219   c0,6.7162819,0,24.4085197,0,40.1704102H36.9799919c-1.0315399,0-2.0628548,0.4350052-2.7299805,0.9990234V16.0002441   C34.2500114,13.6059198,36.1669312,11.6799316,38.5800896,11.6799316z M6.7500119,11.6799316h21.6699219   c2.3452148,0,4.2431641,1.8251953,4.3208008,4.1552734c0.0009766,0.0322266,0.0039063,0.1333008,0.0092773,0.1650391v0.0058594   v0.0014648v36.8388672c-0.6653481-0.5617943-1.6855812-0.9960938-2.7202148-0.9960938H6.7500119   C6.7500119,36.0937195,6.7500119,18.3940659,6.7500119,11.6799316z M3.2500117,16.5603027h2.0000002v36.0400391   c0,0.4140625,0.3359375,0.75,0.75,0.75h24.0297852c1.1432896,0,2.2481232,0.7500114,2.6018066,1.9697266H3.2500117V16.5603027z    M63.7500114,55.3200684H34.3688469c0.3560753-1.2256126,1.4498596-1.9697266,2.611145-1.9697266h24.0200195   c0.4140625,0,0.75-0.3359375,0.75-0.75V16.5603027h2V55.3200684z"/></g><text x="0" y="82" fill="#000000" font-size="5px" font-weight="bold" font-family="'Helvetica Neue', Helvetica, Arial-Unicode, Arial, Sans-serif">Created by Vectors Point</text><text x="0" y="87" fill="#000000" font-size="5px" font-weight="bold" font-family="'Helvetica Neue', Helvetica, Arial-Unicode, Arial, Sans-serif">from the Noun Project</text></svg>