<svg xmlns="http://www.w3.org/2000/svg" xmlns:xlink="http://www.w3.org/1999/xlink" version="1.1" x="0px" y="0px" viewBox="206 206 100 125" enable-background="new 206 206 100 100" xml:space="preserve"><g><path d="M298.683,224.262c0-0.002-0.002-0.004-0.002-0.007c-0.019-0.045-0.042-0.089-0.069-0.13   c-0.003-0.003-0.005-0.006-0.007-0.009c-0.028-0.042-0.06-0.084-0.097-0.121l-13.817-13.816c-0.036-0.036-0.075-0.066-0.117-0.094   c-0.008-0.006-0.018-0.011-0.026-0.017c-0.034-0.021-0.068-0.04-0.104-0.056c-0.011-0.005-0.021-0.01-0.031-0.013   c-0.09-0.036-0.187-0.055-0.284-0.058c-0.006,0-0.011-0.001-0.015-0.001h-60.868c-0.451,0-0.816,0.366-0.816,0.817v84.268   c0,0.054,0.005,0.106,0.016,0.16c0.005,0.023,0.013,0.044,0.02,0.066c0.009,0.029,0.016,0.058,0.027,0.086   c0.011,0.025,0.025,0.049,0.039,0.074c0.012,0.021,0.022,0.045,0.036,0.066c0.028,0.041,0.06,0.08,0.094,0.115   c0.003,0.003,0.004,0.007,0.008,0.009l6.223,6.222c0.319,0.319,0.835,0.319,1.155,0l5.648-5.645l5.646,5.645   c0.159,0.16,0.369,0.239,0.578,0.239c0.208,0,0.417-0.079,0.577-0.239l5.645-5.644l5.648,5.644c0.319,0.319,0.836,0.319,1.155,0   l5.645-5.644l5.645,5.644c0.319,0.319,0.836,0.319,1.154,0l5.65-5.645l5.645,5.645c0.159,0.16,0.369,0.239,0.577,0.239   c0.209,0,0.418-0.079,0.578-0.239l5.645-5.644l5.649,5.644c0.318,0.319,0.836,0.319,1.154,0l6.223-6.222   c0.012-0.012,0.021-0.026,0.032-0.039c0.023-0.027,0.048-0.054,0.068-0.084c0.019-0.027,0.032-0.058,0.047-0.087   c0.01-0.019,0.021-0.035,0.027-0.054c0.017-0.037,0.025-0.075,0.035-0.113c0.004-0.013,0.01-0.025,0.013-0.038   c0.011-0.056,0.017-0.11,0.017-0.167v-70.445C298.746,224.467,298.725,224.361,298.683,224.262z M284.929,212.729l11.028,11.027   h-11.028V212.729L284.929,212.729z M297.112,294.685l-5.405,5.405l-5.649-5.645c-0.318-0.318-0.835-0.318-1.154,0l-5.645,5.645   l-5.645-5.645c-0.319-0.318-0.836-0.318-1.155,0l-5.649,5.645l-5.644-5.642c0-0.001-0.001-0.002-0.001-0.003   c-0.159-0.159-0.368-0.239-0.578-0.239c-0.209,0-0.418,0.08-0.577,0.239c-0.001,0.001-0.001,0.001-0.001,0.001l-5.644,5.644   l-5.648-5.645c-0.319-0.318-0.835-0.318-1.155,0l-5.645,5.645l-5.646-5.645c-0.319-0.318-0.835-0.318-1.155,0l-5.648,5.645   l-5.406-5.405v-83.113h59.234v13c0,0.451,0.366,0.817,0.817,0.817h12.998L297.112,294.685L297.112,294.685z"/><path d="M230.152,219.298h26.746c0.451,0,0.817-0.366,0.817-0.817s-0.366-0.817-0.817-0.817h-26.746   c-0.452,0-0.817,0.366-0.817,0.817S229.7,219.298,230.152,219.298z"/><path d="M230.152,224.349h42.891c0.451,0,0.817-0.366,0.817-0.817c0-0.451-0.366-0.817-0.817-0.817h-42.891   c-0.452,0-0.817,0.366-0.817,0.817C229.335,223.983,229.7,224.349,230.152,224.349z"/><path d="M229.335,228.883v26.446c0,0.451,0.365,0.817,0.817,0.817h60.87c0.451,0,0.816-0.366,0.816-0.817v-26.446   c0-0.451-0.365-0.817-0.816-0.817h-60.87C229.7,228.066,229.335,228.432,229.335,228.883z M247.386,229.7h42.818v7.029h-42.818   V229.7z M247.386,238.363h42.818v7.026h-42.818V238.363z M247.386,247.022h42.818v7.49h-42.818V247.022z M230.969,229.7h14.784   v7.029h-14.784V229.7z M230.969,238.363h14.784v7.026h-14.784V238.363z M230.969,247.022h14.784v7.49h-14.784V247.022z"/><path d="M291.022,259.821h-60.87c-0.452,0-0.817,0.366-0.817,0.817v26.445c0,0.451,0.365,0.816,0.817,0.816   c0.451,0,0.816-0.365,0.816-0.816v-8.306h14.784v8.306c0,0.451,0.366,0.816,0.816,0.816c0.452,0,0.817-0.365,0.817-0.816v-8.306   h42.818v8.306c0,0.451,0.366,0.816,0.817,0.816s0.816-0.365,0.816-0.816v-26.445C291.838,260.187,291.473,259.821,291.022,259.821z    M245.753,277.143h-14.784v-7.025h14.784V277.143L245.753,277.143z M245.753,268.483h-14.784v-7.027h14.784V268.483   L245.753,268.483z M290.204,277.143h-42.818v-7.025h42.818V277.143z M290.204,268.483h-42.818v-7.027h42.818V268.483z"/><path d="M218.557,209.939c-0.451,0-0.817,0.366-0.817,0.817v84.268c0,0.45,0.366,0.816,0.817,0.816   c0.451,0,0.817-0.366,0.817-0.816v-84.268C219.374,210.305,219.008,209.939,218.557,209.939z"/><path d="M214.065,209.939c-0.451,0-0.817,0.366-0.817,0.817v84.268c0,0.45,0.366,0.816,0.817,0.816s0.816-0.366,0.816-0.816   v-84.268C214.881,210.305,214.516,209.939,214.065,209.939z"/></g><text x="206" y="321" fill="#000000" font-size="5px" font-weight="bold" font-family="'Helvetica Neue', Helvetica, Arial-Unicode, Arial, Sans-serif">Created by Cuby Design</text><text x="206" y="326" fill="#000000" font-size="5px" font-weight="bold" font-family="'Helvetica Neue', Helvetica, Arial-Unicode, Arial, Sans-serif">from the Noun Project</text></svg>